<svg width="32" height="32" xmlns="http://www.w3.org/2000/svg">
 <title/>

 <g>
  <title>background</title>
  <rect fill="none" id="canvas_background" height="402" width="582" y="-1" x="-1"/>
 </g>
 <g>
  <title>Layer 1</title>
  <path fill="#ffffff" id="svg_1" d="m29,15l-23.39,0l8.06,-7.26a1,1 0 1 0 -1.34,-1.48l-10,9s0,0 0,0a0.84,0.84 0 0 0 -0.18,0.24l-0.06,0.08a1,1 0 0 0 0,0.8l0.06,0.08a0.84,0.84 0 0 0 0.18,0.24s0,0 0,0l10,9a1,1 0 0 0 0.67,0.3a1,1 0 0 0 0.74,-0.33a1,1 0 0 0 -0.07,-1.41l-8.06,-7.26l23.39,0a1,1 0 0 0 0,-2z"/>
 </g>
</svg>