<svg width="128" height="128" viewBox="0 0 128 128" xmlns="http://www.w3.org/2000/svg">

 <g>
  <title>background</title>
  <rect fill="none" id="canvas_background" y="-1" x="-1"/>
 </g>
 <g>
  <title>Layer 1</title>
  <path fill="#ff9090" id="svg_1" d="m100.58,97.068l-73.059,0l1.874,-3.049c7.765,-12.625 7.859,-43.991 7.859,-44.307c0,-14.147 11.177,-25.734 25.164,-26.396l0,-7.198c0,-1.104 0.896,-2 2,-2s2,0.896 2,2l0,7.244c13.643,1.025 24.428,12.452 24.428,26.351c0,0.315 0.095,31.682 7.859,44.307l1.875,3.048zm-66.165,-4l59.271,0c-6.756,-14.735 -6.84,-42.114 -6.84,-43.355c0,-12.366 -10.062,-22.426 -22.428,-22.426l-0.738,0c-12.365,0 -22.426,10.06 -22.426,22.426c0.001,1.242 -0.083,28.62 -6.839,43.355z"/>
  <path fill="#ff9090" id="svg_2" d="m64.05,109.048976c-6.201,0 -11.247,-5.047 -11.247,-11.249c0,-1.104 0.896,-2 2,-2s2,0.896 2,2c0,3.996 3.251,7.249 7.247,7.249c3.997,0 7.248,-3.253 7.248,-7.249c0,-1.104 0.896,-2 2,-2s2,0.896 2,2c0,6.202 -5.046,11.249 -11.248,11.249z"/>
 </g>
</svg>