<svg width="50" height="50" xmlns="http://www.w3.org/2000/svg">

 <g>
  <title>background</title>
  <rect fill="none" id="canvas_background" height="402" width="582" y="-1" x="-1"/>
 </g>
 <g>
  <title>Layer 1</title>
  <path fill="#ff9090" id="svg_1" d="m25,1c-13.233,0 -24,10.767 -24,24s10.767,24 24,24s24,-10.767 24,-24s-10.767,-24 -24,-24zm0,46c-12.131,0 -22,-9.869 -22,-22s9.869,-22 22,-22s22,9.869 22,22s-9.869,22 -22,22z"/>
  <path fill="#ff9090" id="svg_2" d="m26,23.277l0,-16.277l-2,0l0,16.277c-0.595,0.346 -1,0.984 -1,1.723c0,0.178 0.031,0.347 0.074,0.512l-8.781,8.781l1.414,1.414l8.781,-8.781c0.165,0.043 0.334,0.074 0.512,0.074c1.104,0 2,-0.895 2,-2c0,-0.738 -0.405,-1.376 -1,-1.723z"/>
 </g>
</svg>