<svg width="32" height="32" xmlns="http://www.w3.org/2000/svg">
 <title/>
 <desc/>

 <g>
  <title>background</title>
  <rect fill="none" id="canvas_background" height="402" width="582" y="-1" x="-1"/>
 </g>
 <g>
  <title>Layer 1</title>
  <path fill="#17a2b8" id="cloud" d="m7.10101,15.10215c-1.7764,0.40959 -3.10101,2.00246 -3.10101,3.89785c0,2.20914 1.79794,4 4.00282,4l16.99436,0c2.2107,0 4.00282,-1.79536 4.00282,-4c0,-1.87744 -1.29856,-3.45278 -3.04188,-3.88353l0,0c0.02761,-0.20154 0.04188,-0.40734 0.04188,-0.61647c0,-2.48528 -2.01472,-4.5 -4.5,-4.5c-1.22554,0 -2.33666,0.48991 -3.14819,1.28458c-0.99094,-1.94917 -3.01543,-3.28458 -5.35181,-3.28458c-3.31371,0 -6,2.68629 -6,6c0,0.37649 0.03468,0.74488 0.10101,1.10215l0,0zm19.89834,-0.68762c1.7683,0.77076 3.00065,2.53381 3.00065,4.58547c0,2.7558 -2.23833,5 -4.99944,5l-17.00112,0c-2.76695,0 -4.99944,-2.23858 -4.99944,-5c0,-2.05087 1.23966,-3.81839 3.0119,-4.58846l0,0c-0.0079,-0.13617 -0.0119,-0.27339 -0.0119,-0.41154c0,-3.86599 3.13401,-7 7,-7c2.29795,0 4.33727,1.10728 5.61354,2.8174c0.83903,-0.5183 1.82782,-0.8174 2.88646,-0.8174c3.00902,0 5.45367,2.41638 5.49935,5.41453l0,0l0,0z"/>
 </g>
</svg>