<svg width="24" height="24" xmlns="http://www.w3.org/2000/svg">

 <g>
  <title>background</title>
  <rect fill="none" id="canvas_background" height="402" width="582" y="-1" x="-1"/>
 </g>
 <g>
  <title>Layer 1</title>
  <path fill="#85929e" id="svg_1" d="m23,3.944134l-3,0l0,-3c0,-0.6 -0.4,-1 -1,-1l-18,0c-0.6,0 -1,0.4 -1,1l0,18c0,0.6 0.4,1 1,1l3,0l0,3c0,0.6 0.4,1 1,1l18,0c0.6,0 1,-0.4 1,-1l0,-18c0,-0.6 -0.4,-1 -1,-1zm-19,1l0,13l-2,0l0,-16l16,0l0,2l-13,0c-0.6,0 -1,0.4 -1,1zm18,17l-16,0l0,-16l16,0l0,16z"/>
 </g>
</svg>