<svg width="64" height="64" xmlns="http://www.w3.org/2000/svg">

 <g>
  <title>background</title>
  <rect fill="none" id="canvas_background" height="402" width="582" y="-1" x="-1"/>
 </g>
 <g>
  <title>Layer 1</title>
  <path id="svg_6" fill="#F5CF87" d="m16.954,48c-4.4,0 -6.2,-3.118 -4,-6.928l15.046,-26.06c2.2,-3.811 5.8,-3.811 8,0l15.046,26.06c2.2,3.811 0.4,6.928 -4,6.928l-30.092,0z"/>
  <path id="svg_8" fill="#4F5D73" d="m34,32c0,1.105 -0.895,2 -2,2l0,0c-1.105,0 -2,-0.895 -2,-2l0,-8c0,-1.105 0.895,-2 2,-2l0,0c1.105,0 2,0.895 2,2l0,8z"/>
  <path id="svg_10" fill="#4F5D73" d="m34,40c0,1.105 -0.895,2 -2,2l0,0c-1.105,0 -2,-0.895 -2,-2l0,0c0,-1.105 0.895,-2 2,-2l0,0c1.105,0 2,0.895 2,2l0,0z"/>
 </g>
</svg>