<svg width="426.1" height="371.97" xmlns="http://www.w3.org/2000/svg">
 <title/>

 <g>
  <title>background</title>
  <rect fill="none" id="canvas_background" height="402" width="582" y="-1" x="-1"/>
 </g>
 <g>
  <title>Layer 1</title>
  <path fill="#17a2b8" id="svg_1" d="m60.3,169l-1,4.89a5.36,5.36 0 1 0 10.49,2.23l1,-4.89a5.36,5.36 0 1 0 -10.49,-2.23z"/>
  <path fill="#17a2b8" id="svg_2" d="m70.29,147.76a5.35,5.35 0 0 0 6.36,-4.13l5.35,-25.31l158,0l-51.33,241.59l-56.91,0l11.45,-44.28a5.36,5.36 0 0 0 -5.19,-6.71l-34.02,0a5.37,5.37 0 0 0 -5.19,4l-12.15,47l-56,0l32.77,-154.1a5.36,5.36 0 0 0 -10.49,-2.23l-34.14,160.56a5.37,5.37 0 0 0 5.2,6.48l169,0a5.37,5.37 0 0 0 5.25,-4.25l53.65,-252.31a5.37,5.37 0 0 0 -5.24,-6.47l-169,0a5.36,5.36 0 0 0 -5.24,4.24l-6.25,29.56a5.36,5.36 0 0 0 4.12,6.36zm50.39,212.15l-23,0l10.42,-40.27l23,0l-10.42,40.27z"/>
  <path fill="#17a2b8" id="svg_3" d="m138,149.94l-34,0a5.35,5.35 0 0 0 -5.24,4.24l-7.32,34.44a5.34,5.34 0 0 0 5.24,6.47l34.05,0a5.37,5.37 0 0 0 5.25,-4.24l7.32,-34.44a5.37,5.37 0 0 0 -5.25,-6.47l-0.05,0zm-11.61,34.43l-23.11,0l5,-23.71l23.09,0l-4.98,23.71z"/>
  <path fill="#17a2b8" id="svg_4" d="m193.48,195.09a5.36,5.36 0 0 0 5.24,-4.24l7.28,-34.44a5.35,5.35 0 0 0 -5.24,-6.47l-34.01,0a5.36,5.36 0 0 0 -5.25,4.24l-7.32,34.44a5.35,5.35 0 0 0 5.24,6.47l34.06,0zm-56.45,-34.43l23.09,0l-5,23.71l10.88,0l-28.97,-23.71z"/>
  <path fill="#17a2b8" id="svg_5" d="m85.36,216.8l-7.36,34.43a5.37,5.37 0 0 0 5.24,6.48l34.06,0a5.36,5.36 0 0 0 5.24,-4.25l7.36,-34.46a5.36,5.36 0 0 0 -5.24,-6.48l-34,0a5.36,5.36 0 0 0 -5.3,4.28zm32.64,6.47l-5,23.73l-23.1,0l5,-23.72l23.1,-0.01z"/>
  <path fill="#17a2b8" id="svg_6" d="m148.13,216.8l-7.32,34.43a5.36,5.36 0 0 0 5.24,6.48l34,0a5.37,5.37 0 0 0 5.25,-4.25l7.37,-34.46a5.37,5.37 0 0 0 -5.25,-6.48l-34,0a5.35,5.35 0 0 0 -5.29,4.28zm32.67,6.47l-5,23.72l-23.13,0l5,-23.72l23.13,0z"/>
  <path fill="#17a2b8" id="svg_7" d="m267.9,289.05a5.36,5.36 0 0 0 5.24,-4.25l7.32,-34.43a5.36,5.36 0 0 0 -5.24,-6.48l-34.05,0a5.37,5.37 0 0 0 -5.25,4.25l-7.32,34.43a5.37,5.37 0 0 0 5.24,6.48l34.06,0zm-56.45,-34.44l57.15,0l-5,23.72l-23.1,0l-29.05,-23.72z"/>
  <path fill="#17a2b8" id="svg_8" d="m321.28,289.05a5.37,5.37 0 0 0 5.25,-4.25l7.32,-34.43a5.37,5.37 0 0 0 -5.25,-6.48l-34.05,0a5.35,5.35 0 0 0 -5.24,4.25l-7.31,34.43a5.36,5.36 0 0 0 5.24,6.48l34.04,0zm-56.43,-34.44l57.15,0l-5,23.72l-23.15,0l-29,-23.72z"/>
  <path fill="#17a2b8" id="svg_9" d="m247,222.29a5.36,5.36 0 0 0 5.36,5.36l99.9,0l-28.4,133.6l-43.25,0l11.81,-45.62a5.36,5.36 0 0 0 -5.19,-6.71l-34.06,0a5.38,5.38 0 0 0 -5.19,4l-12.49,48.31l-18.39,0a5.36,5.36 0 1 0 0,10.72l148.9,0a5.36,5.36 0 0 0 0,-10.72l-31.18,0l29.31,-137.84a5.37,5.37 0 0 0 -5.25,-6.48l-106.52,0a5.36,5.36 0 0 0 -5.36,5.38zm22.54,139l-23,0l10.76,-41.61l23,0l-10.76,41.61z"/>
  <path fill="#17a2b8" id="svg_13" d="m392.61,192.45a5.35,5.35 0 0 0 -6.35,4.13l-24.8,116.59a5.36,5.36 0 1 0 10.54,2.23l24.79,-116.59a5.36,5.36 0 0 0 -4.18,-6.36z"/>
  <path fill="#17a2b8" id="svg_14" d="m400,277.41a5.35,5.35 0 0 0 6.36,-4.13l19.64,-92.38a5.36,5.36 0 1 0 -10.49,-2.23l-19.64,92.38a5.36,5.36 0 0 0 4.13,6.36z"/>
  <path fill="#17a2b8" id="svg_17" d="m260.62,175.33a5.35,5.35 0 0 0 6.38,-4.13l14.21,-66.85a5.36,5.36 0 1 0 -10.48,-2.23l-14.24,66.88a5.36,5.36 0 0 0 4.13,6.33z"/>
  <path fill="#17a2b8" id="svg_18" d="m281.65,203.47a5.35,5.35 0 0 0 6.36,-4.12l19.64,-92.35a5.36,5.36 0 1 0 -10.48,-2.23l-19.65,92.38a5.36,5.36 0 0 0 4.13,6.32z"/>
  <path fill="#17a2b8" id="svg_19" d="m356.63,107.65a12.11,12.11 0 0 0 3.12,0.41a11.37,11.37 0 0 0 10.61,-7.26l28.94,-70.68a21.84,21.84 0 1 0 -41.89,-11l-9.41,75.88a11.41,11.41 0 0 0 8.63,12.65zm2,-11.37l9.39,-75.81a11.14,11.14 0 0 1 11,-9.75a11.3,11.3 0 0 1 2.82,0.36a11.12,11.12 0 0 1 7.47,15l-28.87,70.66c-0.13,0.32 -0.31,0.75 -1.09,0.54s-0.73,-0.67 -0.69,-1l-0.03,0z"/>
  <path fill="#17a2b8" id="svg_20" d="m344.77,153a18.81,18.81 0 0 0 23,-13.43l0,0a18.8,18.8 0 1 0 -23,13.44l0,-0.01zm-3.07,-20.23a8.11,8.11 0 0 1 7.83,-6a7.93,7.93 0 0 1 2,0.26a8.08,8.08 0 1 1 -9.87,5.78l0.04,-0.04z"/>
 </g>
</svg>