<svg width="128" height="128" viewBox="0 0 128 128" xmlns="http://www.w3.org/2000/svg">

 <g>
  <title>background</title>
  <rect fill="none" id="canvas_background" height="402" width="582" y="-1" x="-1"/>
 </g>
 <g>
  <title>Layer 1</title>
  <path fill="#17a2b8" id="svg_2" d="m35.491,98.938c-11.846,0 -21.483,-9.638 -21.483,-21.484c0,-11.846 9.637,-21.482 21.483,-21.482c11.847,0 21.484,9.637 21.484,21.482c0.001,11.846 -9.637,21.484 -21.484,21.484zm0,-38.967c-9.64,0 -17.483,7.843 -17.483,17.482c0,9.641 7.844,17.484 17.483,17.484c9.641,0 17.484,-7.844 17.484,-17.484c0.001,-9.64 -7.843,-17.482 -17.484,-17.482z"/>
  <path fill="#17a2b8" id="svg_3" d="m92.346,98.938c-11.846,0 -21.483,-9.638 -21.483,-21.484c0,-11.846 9.638,-21.482 21.483,-21.482c11.847,0 21.484,9.637 21.484,21.482c0,11.846 -9.638,21.484 -21.484,21.484zm0,-38.967c-9.641,0 -17.483,7.843 -17.483,17.482c0,9.641 7.843,17.484 17.483,17.484s17.484,-7.844 17.484,-17.484c0,-9.64 -7.844,-17.482 -17.484,-17.482z"/>
  <path fill="#17a2b8" id="svg_5" d="m17.976,70.566c-0.214,0 -0.431,-0.034 -0.645,-0.107c-1.046,-0.355 -1.605,-1.492 -1.249,-2.537l10.964,-32.196c1.24,-4.928 7.281,-7.728 13.519,-6.25c1.075,0.255 1.74,1.333 1.485,2.407c-0.255,1.076 -1.334,1.736 -2.407,1.485c-4.068,-0.964 -8.066,0.584 -8.729,3.379l-0.053,0.184l-10.992,32.28c-0.283,0.832 -1.06,1.355 -1.893,1.355z"/>
  <path fill="#17a2b8" id="svg_6" d="m109.714,70.566c-0.833,0 -1.609,-0.523 -1.894,-1.355l-11.047,-32.463c-0.301,-1.272 -1.3,-2.336 -2.812,-2.997c-1.709,-0.746 -3.812,-0.88 -5.917,-0.382c-1.075,0.25 -2.153,-0.41 -2.407,-1.485c-0.255,-1.075 0.41,-2.152 1.485,-2.407c2.944,-0.697 5.94,-0.481 8.439,0.609c2.657,1.161 4.457,3.161 5.079,5.642l10.966,32.195c0.355,1.045 -0.203,2.182 -1.249,2.537c-0.211,0.072 -0.429,0.106 -0.643,0.106z"/>
  <path fill="#17a2b8" id="svg_7" d="m72.86,79.454c-0.306,0 -0.615,-0.07 -0.906,-0.219c-0.026,-0.013 -3.361,-1.651 -8.243,-1.651c-4.813,0 -7.711,1.588 -7.738,1.604c-0.958,0.551 -2.181,0.221 -2.731,-0.737c-0.55,-0.958 -0.22,-2.181 0.737,-2.73c0.152,-0.087 3.785,-2.136 9.732,-2.136c5.894,0 9.893,2.002 10.06,2.088c0.984,0.502 1.375,1.705 0.874,2.689c-0.354,0.693 -1.056,1.092 -1.785,1.092z"/>
 </g>
</svg>