<svg width="100.353" height="100.353" viewBox="0 0 100.353 100.353" xmlns="http://www.w3.org/2000/svg">

 <g>
  <title>background</title>
  <rect fill="none" id="canvas_background" height="402" width="582" y="-1" x="-1"/>
 </g>
 <g>
  <title>Layer 1</title>
  <path fill="#17a2b8" id="svg_1" d="m90.54,33.012l-41.064,-27.376c-0.504,-0.336 -1.16,-0.336 -1.664,0l-41.064,27.376c-0.417,0.278 -0.668,0.747 -0.668,1.248s0.25,0.97 0.668,1.248l6.237,4.158l0,21.913c0,0.511 0.26,0.987 0.69,1.263l34.399,22.053c0.247,0.158 0.528,0.237 0.81,0.237c0.295,0 0.591,-0.087 0.845,-0.261l17.947,-12.244l0,8.538l-6.686,13.372c-0.232,0.465 -0.207,1.018 0.065,1.46c0.273,0.441 0.757,0.711 1.276,0.711l13.689,0c0.52,0 1.003,-0.27 1.276,-0.711c0.272,-0.442 0.298,-0.995 0.065,-1.46l-6.686,-13.372l0,-10.585l11.377,-7.762c0.409,-0.279 0.654,-0.743 0.654,-1.239l0,-20.849l7.833,-5.222c0.417,-0.278 0.668,-0.747 0.668,-1.248s-0.25,-0.97 -0.667,-1.248zm-25.781,60.696l4.417,-8.834l4.417,8.834l-8.834,0zm-15.901,-11.874l-32.873,-21.075l0,-19.093l31.827,21.219c0.252,0.168 0.542,0.252 0.832,0.252s0.58,-0.084 0.832,-0.252l18.2,-12.134l0,18.244l-18.818,12.839zm30.849,-21.047l-9.031,6.162l0,-18.198l9.031,-6.021l0,18.057zm0.979,-22.315c-0.221,0.082 -0.416,0.213 -0.574,0.383l-10.936,7.291l-19.7,-13.134c-0.691,-0.46 -1.621,-0.273 -2.08,0.416c-0.459,0.689 -0.273,1.621 0.416,2.08l18.66,12.44l-17.828,11.886l-38.36,-25.574l38.36,-25.573l38.36,25.573l-6.318,4.212z"/>
 </g>
</svg>