<svg width="48" height="48" viewBox="0 0 48 48" xmlns="http://www.w3.org/2000/svg">

 <g>
  <title>background</title>
  <rect fill="none" id="canvas_background" height="402" width="582" y="-1" x="-1"/>
 </g>
 <g>
  <title>Layer 1</title>
  <circle fill="#17a2b8" id="svg_3" r="2" cy="30" cx="24"/>
  <path fill="#17a2b8" id="svg_5" d="m24,38c-0.553,0 -1,-0.447 -1,-1l0,-6c0,-0.553 0.447,-1 1,-1s1,0.447 1,1l0,6c0,0.553 -0.447,1 -1,1z"/>
  <path fill="#17a2b8" id="svg_7" d="m42,48l-36,0l0,-30l36,0l0,30zm-34,-2l32,0l0,-26l-32,0l0,26z"/>
  <path fill="#17a2b8" id="svg_9" d="m36,19l-2,0l0,-7c0,-5.514 -4.486,-10 -10,-10s-10,4.486 -10,10l0,7l-2,0l0,-7c0,-6.617 5.383,-12 12,-12s12,5.383 12,12l0,7z"/>
 </g>
</svg>