<svg width="48" height="48" xmlns="http://www.w3.org/2000/svg">

 <g>
  <title>background</title>
  <rect fill="none" id="canvas_background" height="402" width="582" y="-1" x="-1"/>
 </g>
 <g>
  <title>Layer 1</title>
  <path fill="#ff9090" id="svg_3" d="m24,48c-13.233,0 -24,-10.767 -24,-24s10.767,-24 24,-24s24,10.767 24,24s-10.767,24 -24,24zm0,-46c-12.131,0 -22,9.869 -22,22s9.869,22 22,22s22,-9.869 22,-22s-9.869,-22 -22,-22z"/>
  <path fill="#ff9090" id="svg_5" d="m24,28c-2.206,0 -4,-1.794 -4,-4s1.794,-4 4,-4s4,1.794 4,4s-1.794,4 -4,4zm0,-6c-1.103,0 -2,0.897 -2,2s0.897,2 2,2s2,-0.897 2,-2s-0.897,-2 -2,-2z"/>
  <path fill="#ff9090" id="svg_7" d="m26.122,22.879c-0.256,0 -0.512,-0.098 -0.707,-0.293c-0.391,-0.391 -0.391,-1.023 0,-1.414l9.899,-9.899c0.391,-0.391 1.023,-0.391 1.414,0s0.391,1.023 0,1.414l-9.899,9.899c-0.196,0.195 -0.452,0.293 -0.707,0.293z"/>
  <path fill="#ff9090" id="svg_9" d="m9,25l-4,0c-0.552,0 -1,-0.447 -1,-1s0.448,-1 1,-1l4,0c0.552,0 1,0.447 1,1s-0.448,1 -1,1z"/>
  <path fill="#ff9090" id="svg_11" d="m6.447,32.271c-0.393,0 -0.765,-0.232 -0.924,-0.617c-0.211,-0.511 0.031,-1.096 0.542,-1.307l3.696,-1.53c0.509,-0.213 1.095,0.03 1.306,0.541c0.211,0.511 -0.031,1.096 -0.542,1.307l-3.696,1.53c-0.125,0.051 -0.255,0.076 -0.382,0.076z"/>
  <path fill="#ff9090" id="svg_13" d="m41.552,32.271c-0.127,0 -0.257,-0.024 -0.382,-0.076l-3.695,-1.531c-0.51,-0.212 -0.752,-0.797 -0.541,-1.307c0.211,-0.511 0.797,-0.754 1.307,-0.541l3.695,1.531c0.51,0.212 0.752,0.797 0.541,1.307c-0.161,0.385 -0.533,0.617 -0.925,0.617z"/>
  <path fill="#ff9090" id="svg_15" d="m42.999,25.001l0,0l-4,-0.001c-0.552,0 -1,-0.448 -1,-1c0,-0.553 0.448,-1 1,-1l0,0l4,0.001c0.553,0 1,0.448 1,1c0,0.553 -0.448,1 -1,1z"/>
  <path fill="#ff9090" id="svg_17" d="m37.858,19.26c-0.393,0 -0.765,-0.232 -0.924,-0.617c-0.211,-0.511 0.031,-1.096 0.542,-1.307l3.695,-1.529c0.509,-0.211 1.095,0.031 1.306,0.541c0.211,0.511 -0.031,1.096 -0.542,1.307l-3.695,1.529c-0.125,0.051 -0.254,0.076 -0.382,0.076z"/>
  <path fill="#ff9090" id="svg_19" d="m29.74,11.142c-0.127,0 -0.257,-0.024 -0.382,-0.076c-0.51,-0.212 -0.752,-0.797 -0.541,-1.307l1.531,-3.694c0.211,-0.51 0.796,-0.752 1.307,-0.541c0.51,0.212 0.752,0.797 0.541,1.307l-1.531,3.694c-0.161,0.384 -0.533,0.617 -0.925,0.617z"/>
  <path fill="#ff9090" id="svg_21" d="m24,10l0,0c-0.553,0 -1,-0.448 -1,-1l0.001,-3.999c0,-0.553 0.448,-1 1,-1l0,0c0.553,0 1,0.448 1,1l-0.001,3.999c0,0.553 -0.448,1 -1,1z"/>
  <path fill="#ff9090" id="svg_23" d="m18.26,11.142c-0.393,0 -0.765,-0.232 -0.924,-0.617l-1.529,-3.695c-0.211,-0.511 0.031,-1.096 0.542,-1.307c0.51,-0.212 1.096,0.031 1.306,0.541l1.529,3.695c0.211,0.511 -0.031,1.096 -0.542,1.307c-0.125,0.051 -0.254,0.076 -0.382,0.076z"/>
  <path fill="#ff9090" id="svg_25" d="m13.394,14.394c-0.256,0 -0.512,-0.098 -0.708,-0.293l-2.827,-2.829c-0.39,-0.391 -0.39,-1.024 0,-1.414c0.391,-0.391 1.024,-0.391 1.415,0l2.827,2.829c0.39,0.391 0.39,1.024 0,1.414c-0.196,0.195 -0.452,0.293 -0.707,0.293z"/>
  <path fill="#ff9090" id="svg_27" d="m10.142,19.26c-0.127,0 -0.257,-0.024 -0.383,-0.076l-3.695,-1.532c-0.51,-0.212 -0.752,-0.797 -0.541,-1.307s0.795,-0.753 1.307,-0.541l3.695,1.532c0.51,0.212 0.752,0.797 0.541,1.307c-0.16,0.384 -0.532,0.617 -0.924,0.617z"/>
 </g>
</svg>