<svg width="24" height="24" viewBox="0 0 24 24" xmlns="http://www.w3.org/2000/svg">

 <g>
  <title>background</title>
  <rect fill="none" id="canvas_background" height="402" width="582" y="-1" x="-1"/>
 </g>
 <g>
  <title>Layer 1</title>
  <path fill="#17a2b8" id="svg_1" d="m14.8,12.4l1.9,-1.9c1.8,0.7 3.9,0.3 5.4,-1.1l0.7,-0.7c1.6,-1.6 1.6,-4.1 0,-5.7l-0.7,0.7l-2.8,2.8c-0.4,0.4 -1,0.4 -1.4,0c-0.4,-0.4 -0.4,-1 0,-1.4l2.8,-2.8l0.7,-0.7c-1.6,-1.6 -4.1,-1.6 -5.7,0l-0.7,0.7c-1.4,1.4 -1.8,3.6 -1.1,5.4l-2.6,2.6l-9.4,-9.4l-1.9,-0.5l0.5,1.9l9.4,9.4l-9,9c-0.8,0.8 -0.8,2 0,2.8s2,0.8 2.8,0l8.3,-8.3l8.6,8.6c0.8,0.8 2,0.8 2.8,0s0.8,-2 0,-2.8l-8.6,-8.6zm1,-9.4l0.7,-0.7c0.9,-0.9 2.3,-1.1 3.4,-0.6l-2.7,2.7c-0.8,0.8 -0.8,2 0,2.8c0.8,0.8 2,0.8 2.8,0l2.7,-2.7c0.5,1.2 0.3,2.5 -0.6,3.5l-0.7,0.7c-1.6,1.6 -4.1,1.6 -5.7,0c-1.5,-1.6 -1.5,-4.1 0.1,-5.7zm-1.4,5.6c0.2,0.3 0.4,0.5 0.6,0.8c0.2,0.2 0.5,0.5 0.8,0.6l-2.4,2.4l-1.4,-1.4l2.4,-2.4zm-11.4,14.2c-0.4,0.4 -1,0.4 -1.4,0s-0.4,-1 0,-1.4l1.4,-1.4l1.4,1.4l-1.4,1.4zm0.7,-3.5l6.8,-6.8l1.4,1.4l-6.8,6.8l-1.4,-1.4zm9.1,-4.7l1.4,-1.4l6.4,6.4l-1.4,1.4l-6.4,-6.4zm9.9,8.5c-0.4,0.4 -1,0.4 -1.4,0l-1.4,-1.4l1.4,-1.4l1.4,1.4c0.4,0.4 0.4,1 0,1.4z"/>
 </g>
</svg>